<?xml version="1.0" standalone="no"?>
<!DOCTYPE svg PUBLIC "-//W3C//DTD SVG 20010904//EN"
 "http://www.w3.org/TR/2001/REC-SVG-20010904/DTD/svg10.dtd">
<svg version="1.0" xmlns="http://www.w3.org/2000/svg"
 width="123.000000pt" height="169.000000pt" viewBox="0 0 123.000000 169.000000"
 preserveAspectRatio="xMidYMid meet">

<g transform="translate(0.000000,169.000000) scale(0.100000,-0.100000)"
fill="#000000" stroke="none">
<path d="M1225 845 c0 -467 1 -657 2 -422 2 236 2 618 0 850 -1 232 -2 40 -2
-428z"/>
<path d="M371 930 c-121 -325 -221 -595 -221 -600 0 -6 37 -10 89 -10 l89 0
32 87 c17 49 44 123 58 165 l27 78 237 0 237 0 19 -52 c11 -29 36 -104 56
-165 l38 -113 89 0 c66 0 89 3 89 13 0 7 -95 269 -211 582 -116 314 -213 578
-216 588 -5 15 -18 17 -98 17 l-93 0 -221 -590z m605 -10 l212 -575 -60 -3
c-34 -2 -67 -1 -74 2 -6 2 -36 77 -65 165 l-54 161 -252 0 -252 0 -19 -53
c-11 -28 -37 -103 -58 -164 l-39 -113 -72 0 -73 0 19 48 c10 26 108 287 217
580 l199 533 79 -3 80 -3 212 -575z"/>
<path d="M573 1078 c-56 -155 -100 -286 -97 -290 3 -4 95 -8 205 -8 151 0 201
3 204 13 6 15 -189 560 -202 564 -5 2 -54 -124 -110 -279z m202 -12 c47 -131
85 -244 85 -252 0 -13 -25 -15 -174 -12 -96 2 -177 5 -180 8 -3 3 33 111 79
240 104 287 95 264 100 258 3 -2 43 -111 90 -242z"/>
</g>
</svg>
